<svg width="1497" height="624" viewBox="0 0 1497 624" fill="none" xmlns="http://www.w3.org/2000/svg">
<rect width="302" height="302" rx="40" fill="#1F1F1F"/>
<path d="M151.163 151.244C151.163 132.436 166.411 117.188 185.219 117.188C204.028 117.188 219.276 132.436 219.276 151.244C219.276 170.053 204.028 185.301 185.219 185.301C166.411 185.301 151.163 170.053 151.163 151.244Z" fill="#00B6FF"/>
<path d="M83.0503 219.357C83.0503 200.548 98.2979 185.301 117.107 185.301H151.163V219.357C151.163 238.166 135.916 253.414 117.107 253.414C98.2979 253.414 83.0503 238.166 83.0503 219.357Z" fill="#24CB71"/>
<path d="M151.163 49.075V117.188H185.22C204.029 117.188 219.276 101.94 219.276 83.1315C219.276 64.3226 204.029 49.075 185.22 49.075H151.163Z" fill="#FF7676"/>
<path d="M83.0503 83.1315C83.0503 101.94 98.2979 117.188 117.107 117.188L151.163 117.188V49.075L117.107 49.075C98.2979 49.075 83.0503 64.3226 83.0503 83.1315Z" fill="#FF3737"/>
<path d="M83.0503 151.244C83.0503 170.053 98.2979 185.301 117.107 185.301H151.163V117.188L117.107 117.188C98.2979 117.188 83.0503 132.436 83.0503 151.244Z" fill="#874FFF"/>
<rect x="327" y="5" width="764" height="292" rx="146" stroke="#00B6FF" stroke-width="10"/>
<path d="M482.327 214.632C452.999 214.632 435.139 198.84 428.935 178.16L447.171 169.888C451.871 184.928 462.775 197.712 483.455 197.712C501.503 197.712 511.279 189.064 511.279 176.656C511.279 165.752 503.571 159.172 487.403 155.788L469.919 151.84C449.427 147.516 435.515 137.552 435.515 115.18C435.515 93.936 453.563 77.768 481.387 77.768C510.339 77.768 525.003 95.628 528.951 108.788L511.279 116.872C508.271 108.036 500.375 94.688 479.695 94.688C463.339 94.688 454.315 102.96 454.315 114.24C454.315 124.956 460.895 130.22 475.183 133.416L493.231 137.364C515.227 142.064 531.019 154.472 531.019 174.964C531.019 197.9 514.099 214.632 482.327 214.632ZM550.943 101.456V80.4H569.743V101.456H550.943ZM551.507 212V118.752H569.367V212H551.507ZM596.22 212V118.752H613.328V132.852C617.276 125.896 625.548 116.12 641.528 116.12C655.064 116.12 665.592 123.452 670.48 135.484C674.428 127.024 683.076 116.12 701.688 116.12C722.368 116.12 734.024 127.964 734.024 150.148V212H716.164V155.036C716.164 137.928 708.456 131.724 696.612 131.724C674.24 131.724 673.676 155.224 673.676 168.008V212H656.38V155.036C656.38 137.928 648.484 131.724 636.64 131.724C614.832 131.724 613.892 155.224 613.892 168.008V212H596.22ZM759.53 248.66V118.752H776.638V132.852C781.15 125.144 790.55 116.12 806.906 116.12C828.902 116.12 845.07 134.732 845.07 165.376C845.07 195.832 828.902 214.632 806.906 214.632C790.55 214.632 781.714 205.608 777.202 197.9V215.76V248.66H759.53ZM801.83 199.592C816.306 199.592 826.834 190.38 826.834 165.188C826.834 139.808 816.306 131.16 801.83 131.16C786.978 131.16 776.262 142.252 776.262 165.188C776.262 188.124 786.978 199.592 801.83 199.592ZM865.376 212V80.4H883.048V212H865.376ZM945.997 214.632C920.053 214.632 902.945 197.148 902.945 165.752C902.945 135.296 920.993 116.12 945.245 116.12C973.069 116.12 989.613 139.432 986.229 169.888H920.617C921.369 192.26 933.777 199.78 946.561 199.78C961.601 199.78 968.181 188.5 970.813 181.92L986.981 187.748C980.213 205.608 965.361 214.632 945.997 214.632ZM920.993 155.788H968.369C968.181 139.056 957.653 130.22 945.245 130.22C933.213 130.22 922.497 139.62 920.993 155.788Z" fill="white"/>
<rect y="322" width="731" height="302" rx="151" fill="#4D49FC"/>
<path d="M92.8816 534V402.4H138.942C176.542 402.4 202.486 428.344 202.486 467.824C202.486 509.184 177.294 534 138.002 534H92.8816ZM111.682 516.704H135.182C167.33 516.704 182.746 499.972 182.746 467.824C182.746 438.872 167.706 419.696 136.498 419.696H111.682V516.704ZM260.08 536.632C234.136 536.632 217.028 519.148 217.028 487.752C217.028 457.296 235.076 438.12 259.328 438.12C287.152 438.12 303.696 461.432 300.312 491.888H234.7C235.452 514.26 247.86 521.78 260.644 521.78C275.684 521.78 282.264 510.5 284.896 503.92L301.064 509.748C294.296 527.608 279.444 536.632 260.08 536.632ZM235.076 477.788H282.452C282.264 461.056 271.736 452.22 259.328 452.22C247.296 452.22 236.58 461.62 235.076 477.788ZM353.532 536.632C333.98 536.632 316.496 527.608 312.548 509.936L329.28 504.484C331.724 514.072 338.492 522.156 353.72 522.156C366.692 522.156 373.648 517.456 373.648 509.184C373.648 502.604 369.7 497.904 356.916 495.46L345.636 493.392C329.656 490.196 316.308 484.18 316.308 466.32C316.308 449.588 332.1 438.12 351.464 438.12C374.588 438.12 385.68 449.964 389.44 461.808L373.836 467.824C371.58 461.432 365.94 452.22 351.276 452.22C338.868 452.22 333.228 458.048 333.228 464.628C333.228 470.644 336.048 474.216 349.02 476.66L360.112 478.728C370.828 480.984 391.508 487 391.508 507.68C391.508 525.352 377.596 536.632 353.532 536.632ZM410.138 423.456V402.4H428.938V423.456H410.138ZM410.702 534V440.752H428.562V534H410.702ZM471.207 570.66C452.971 570.66 446.391 562.764 446.391 551.86C446.391 542.46 452.971 535.692 458.423 532.308C453.159 529.112 450.151 524.6 450.151 517.08C450.151 507.868 457.671 501.476 464.063 497.34C458.611 492.452 453.723 483.992 453.723 472.9C453.723 453.16 469.515 438.12 491.323 438.12C508.619 438.12 518.959 447.332 523.283 454.664C524.975 446.58 529.111 440.752 538.699 440.752H548.287V455.416H540.579C532.683 455.416 529.675 457.296 528.923 468.012L528.547 472.524C526.855 493.58 512.379 507.116 491.511 507.116C485.119 507.116 479.103 506.364 473.839 503.544C468.763 505.612 465.567 508.996 465.567 512.38C465.567 515.388 467.447 518.396 473.839 518.396H514.259C532.495 518.396 544.339 528.924 544.339 544.528C544.339 562.012 530.803 570.66 514.635 570.66H471.207ZM491.511 493.204C503.731 493.204 511.627 485.12 511.627 472.712C511.627 460.492 503.731 452.032 491.511 452.032C479.291 452.032 471.395 460.492 471.395 472.712C471.395 485.12 479.291 493.204 491.511 493.204ZM476.095 555.62H512.379C519.899 555.62 526.479 553.552 526.479 544.716C526.479 535.88 519.899 534 512.379 534H468.763C465.755 535.88 461.995 540.016 461.995 545.844C461.995 553.364 467.071 555.62 476.095 555.62ZM562.912 534V440.752H580.02V456.356C581.9 451.844 590.924 438.12 610.476 438.12C633.412 438.12 642.812 452.22 642.812 472.9V534H625.14V477.036C625.14 460.304 617.432 453.536 605.4 453.536C580.96 453.536 580.584 480.608 580.584 493.768V534H562.912Z" fill="white"/>
<rect x="751" y="322" width="746" height="302" rx="40" fill="white"/>
<path d="M875.063 536.632C845.735 536.632 827.875 520.84 821.671 500.16L839.907 491.888C844.607 506.928 855.511 519.712 876.191 519.712C894.239 519.712 904.015 511.064 904.015 498.656C904.015 487.752 896.307 481.172 880.139 477.788L862.655 473.84C842.163 469.516 828.251 459.552 828.251 437.18C828.251 415.936 846.299 399.768 874.123 399.768C903.075 399.768 917.739 417.628 921.687 430.788L904.015 438.872C901.007 430.036 893.111 416.688 872.431 416.688C856.075 416.688 847.051 424.96 847.051 436.24C847.051 446.956 853.631 452.22 867.919 455.416L885.967 459.364C907.963 464.064 923.755 476.472 923.755 496.964C923.755 519.9 906.835 536.632 875.063 536.632ZM1001.58 440.752H1020.19L983.535 547.16C977.519 564.832 970.563 570.66 954.207 570.66H934.843V554.868H953.643C960.035 554.868 963.795 553.364 966.427 546.22L971.127 532.872L929.955 440.752H949.695L968.871 487.188C975.075 501.664 976.767 505.8 978.459 510.312C980.151 505.236 981.279 501.664 985.603 489.068L1001.58 440.752ZM1066.82 536.632C1047.27 536.632 1029.78 527.608 1025.83 509.936L1042.57 504.484C1045.01 514.072 1051.78 522.156 1067.01 522.156C1079.98 522.156 1086.93 517.456 1086.93 509.184C1086.93 502.604 1082.99 497.904 1070.2 495.46L1058.92 493.392C1042.94 490.196 1029.59 484.18 1029.59 466.32C1029.59 449.588 1045.39 438.12 1064.75 438.12C1087.87 438.12 1098.97 449.964 1102.73 461.808L1087.12 467.824C1084.87 461.432 1079.23 452.22 1064.56 452.22C1052.15 452.22 1046.51 458.048 1046.51 464.628C1046.51 470.644 1049.33 474.216 1062.31 476.66L1073.4 478.728C1084.11 480.984 1104.79 487 1104.79 507.68C1104.79 525.352 1090.88 536.632 1066.82 536.632ZM1155.6 534C1140.18 534 1132.1 526.48 1132.1 511.064V455.416H1110.86V440.752H1132.1V411.612H1149.77V440.752H1174.96V455.416H1149.77V509.56C1149.77 515.952 1152.59 518.772 1158.98 518.772H1178.54V534H1155.6ZM1229.95 536.632C1204.01 536.632 1186.9 519.148 1186.9 487.752C1186.9 457.296 1204.95 438.12 1229.2 438.12C1257.02 438.12 1273.57 461.432 1270.18 491.888H1204.57C1205.32 514.26 1217.73 521.78 1230.51 521.78C1245.55 521.78 1252.13 510.5 1254.77 503.92L1270.93 509.748C1264.17 527.608 1249.31 536.632 1229.95 536.632ZM1204.95 477.788H1252.32C1252.13 461.056 1241.61 452.22 1229.2 452.22C1217.17 452.22 1206.45 461.62 1204.95 477.788ZM1291.25 534V440.752H1308.36V454.852C1312.31 447.896 1320.58 438.12 1336.56 438.12C1350.1 438.12 1360.63 445.452 1365.51 457.484C1369.46 449.024 1378.11 438.12 1396.72 438.12C1417.4 438.12 1429.06 449.964 1429.06 472.148V534H1411.2V477.036C1411.2 459.928 1403.49 453.724 1391.65 453.724C1369.27 453.724 1368.71 477.224 1368.71 490.008V534H1351.41V477.036C1351.41 459.928 1343.52 453.724 1331.67 453.724C1309.87 453.724 1308.93 477.224 1308.93 490.008V534H1291.25Z" fill="black"/>
</svg>
